<svg xmlns="http://www.w3.org/2000/svg" viewBox="0 0 720 500" role="img" aria-labelledby="t" font-family="Inter, 'Segoe UI', Helvetica, Arial, sans-serif">
  <title id="t">Three years of Fukushima treated-water discharge: batches and cumulative volume by fiscal year, tank inventory, and outlet tritium concentration compared with Japan's target and the WHO guideline</title>
  <style>
    .title { font-size: 17px; font-weight: 800; fill: #1f2937; }
    .h { font-size: 13px; font-weight: 800; fill: #1f2937; }
    .label { font-size: 12.5px; fill: #1f2937; }
    .value { font-size: 12.5px; font-weight: 700; fill: #0b6e4f; }
    .small { font-size: 11.5px; fill: #6b7280; }
    .src { font-size: 10.5px; fill: #6b7280; }
  </style>
  <rect x="0" y="0" width="720" height="500" fill="#f8faf9"/>

  <text x="20" y="30" class="title">Three years of Fukushima treated-water discharge — the numbers so far</text>
  <text x="20" y="50" class="small">Started Aug 24, 2023 · FY Apr–Mar · Through batch 22 (Aug 17, 2026) · Batch 23 underway (Aug 31–Sept 18, ~7,800 t)</text>

  <!-- Panel 1: batches per fiscal year, cumulative volume (172,729 t = 220px) -->
  <text x="20" y="82" class="h">Batches per fiscal year · cumulative volume (t)</text>
  <line x1="150" y1="92" x2="150" y2="218" stroke="#e5e7eb" stroke-width="1"/>

  <text x="20" y="111" class="label">FY2023 · 4 batches</text>
  <rect x="150" y="97" width="40" height="20" rx="4" fill="#0b6e4f"/>
  <text x="196" y="112" class="value">31,145</text>

  <text x="20" y="141" class="label">FY2024 · 7 batches</text>
  <rect x="150" y="127" width="40" height="20" rx="4" fill="#0b6e4f" opacity="0.55"/>
  <rect x="190" y="127" width="70" height="20" rx="4" fill="#0b6e4f"/>
  <text x="266" y="142" class="value">86,144</text>

  <text x="20" y="171" class="label">FY2025 · 7 batches</text>
  <rect x="150" y="157" width="110" height="20" rx="4" fill="#0b6e4f" opacity="0.55"/>
  <rect x="260" y="157" width="70" height="20" rx="4" fill="#0b6e4f"/>
  <text x="336" y="172" class="value">141,155</text>

  <text x="20" y="201" class="label">FY2026 · 4 batches*</text>
  <rect x="150" y="187" width="180" height="20" rx="4" fill="#0b6e4f" opacity="0.55"/>
  <rect x="330" y="187" width="40" height="20" rx="4" fill="#f5a623"/>
  <text x="376" y="202" class="value">172,729</text>

  <text x="20" y="224" class="small">*FY2026: 4 of 8 planned batches done through batch 22 · dark segment = that year's discharge (~7,800 t per batch)</text>

  <!-- Panel 2: tank inventory gauge (1.34 million t = 240px) -->
  <text x="460" y="82" class="h">Tank inventory</text>
  <rect x="460" y="97" width="240" height="26" rx="6" fill="#ffffff" stroke="#6b7280" stroke-width="1"/>
  <rect x="460" y="97" width="222" height="26" rx="6" fill="#0b6e4f"/>
  <rect x="682" y="97" width="18" height="26" fill="#f5a623"/>
  <text x="470" y="115" style="font-size:12.5px; font-weight:700; fill:#fff">~1.24 million t left (Aug 2026)</text>
  <text x="460" y="144" class="label">~1.34 million t at start → <tspan font-weight="700" fill="#b45309">−7.6%</tspan> in 3 yrs</text>
  <text x="460" y="162" class="small">New water keeps forming; drop is small</text>
  <text x="460" y="180" class="small">17 of ~1,000 tanks emptied and dismantled</text>
  <text x="460" y="198" class="small">Discharge planned to 2051 (~30 years)</text>

  <!-- Panel 3: tritium comparison (10,000 Bq/L = 540px) -->
  <text x="20" y="256" class="h">Tritium at the outlet after dilution (Bq/L) — what to compare it with</text>
  <line x1="160" y1="266" x2="160" y2="384" stroke="#e5e7eb" stroke-width="1"/>

  <text x="20" y="286" class="label">WHO drinking water</text>
  <rect x="160" y="271" width="540" height="22" rx="4" fill="#6b7280"/>
  <text x="172" y="287" style="font-size:12.5px; font-weight:700; fill:#fff">10,000 (guideline value)</text>

  <text x="20" y="326" class="label">Japan target (below)</text>
  <rect x="160" y="311" width="81" height="22" rx="4" fill="#f5a623"/>
  <text x="247" y="327" class="value">1,500</text>

  <text x="20" y="366" class="label">Batch 22, actual</text>
  <rect x="160" y="351" width="13" height="22" rx="3" fill="#0b6e4f"/>
  <text x="179" y="367" class="value">167–245 <tspan font-weight="400" fill="#6b7280">— about 1/6–1/9 of the target, 1/40–1/60 of the WHO guideline</tspan></text>

  <text x="20" y="400" class="small">Before dilution ~170,000 Bq/L (batch 22) · 3-km alert level 700 Bq/L, never exceeded since discharge began</text>

  <!-- Bottom summary -->
  <rect x="20" y="414" width="680" height="46" fill="#e3f2ec" rx="10"/>
  <text x="36" y="433" class="label" font-size="12">Bottom line: outlet within limits, no anomaly in Korean waters → but 92% of the tank water remains and discharge continues</text>
  <text x="36" y="451" class="label" font-size="12">→ Still open: non-tritium nuclides, organically bound tritium (OBT), trust over 30 years — keep counting</text>

  <text x="20" y="480" class="src">Sources: TEPCO treated-water portal &amp; FY2026 plan · Korean government briefing 332 (Aug 19, 2026) · Kyodo News (Aug 2026)</text>
  <text x="20" y="494" class="src">As of Sept 2026 · Volume through batch 22 (Aug 17) · Tanks per Aug 2026 disclosure · WHO figure = drinking-water guideline value</text>
</svg>
